<mxfile host="app.diagrams.net" agent="Mozilla/5.0 (Windows NT 10.0; Win64; x64) AppleWebKit/537.36 (KHTML, like Gecko) Chrome/132.0.0.0 Safari/537.36 Edg/132.0.0.0" version="26.0.10" pages="9">
  <diagram name="Patient ER Model" id="GaRT7yHD2InhLc5ov3ME">
    <mxGraphModel dx="2066" dy="1147" grid="0" gridSize="10" guides="1" tooltips="1" connect="1" arrows="1" fold="1" page="0" pageScale="1" pageWidth="850" pageHeight="1100" math="0" shadow="0">
      <root>
        <mxCell id="0" />
        <mxCell id="1" parent="0" />
        <mxCell id="ku_li8XaRolx52DzUGt0-11" value="" style="endArrow=none;html=1;rounded=0;entryX=0;entryY=0;entryDx=0;entryDy=0;exitX=1;exitY=1;exitDx=0;exitDy=0;" parent="1" source="ku_li8XaRolx52DzUGt0-8" target="ku_li8XaRolx52DzUGt0-3" edge="1">
          <mxGeometry width="50" height="50" relative="1" as="geometry">
            <mxPoint x="-251" y="140" as="sourcePoint" />
            <mxPoint x="-201" y="90" as="targetPoint" />
          </mxGeometry>
        </mxCell>
        <mxCell id="ku_li8XaRolx52DzUGt0-13" value="" style="endArrow=none;html=1;rounded=0;entryX=0.5;entryY=0;entryDx=0;entryDy=0;exitX=0.5;exitY=1;exitDx=0;exitDy=0;" parent="1" source="ku_li8XaRolx52DzUGt0-7" target="ku_li8XaRolx52DzUGt0-3" edge="1">
          <mxGeometry width="50" height="50" relative="1" as="geometry">
            <mxPoint x="-196" y="71" as="sourcePoint" />
            <mxPoint x="-164" y="95" as="targetPoint" />
          </mxGeometry>
        </mxCell>
        <mxCell id="ku_li8XaRolx52DzUGt0-14" value="" style="endArrow=none;html=1;rounded=0;entryX=0;entryY=1;entryDx=0;entryDy=0;exitX=1;exitY=0;exitDx=0;exitDy=0;" parent="1" source="ku_li8XaRolx52DzUGt0-3" target="ku_li8XaRolx52DzUGt0-6" edge="1">
          <mxGeometry width="50" height="50" relative="1" as="geometry">
            <mxPoint x="-86" y="81" as="sourcePoint" />
            <mxPoint x="-54" y="105" as="targetPoint" />
          </mxGeometry>
        </mxCell>
        <mxCell id="ku_li8XaRolx52DzUGt0-15" value="" style="endArrow=none;html=1;rounded=0;entryX=0;entryY=0.5;entryDx=0;entryDy=0;exitX=1;exitY=0.5;exitDx=0;exitDy=0;" parent="1" source="ku_li8XaRolx52DzUGt0-5" target="ku_li8XaRolx52DzUGt0-1" edge="1">
          <mxGeometry width="50" height="50" relative="1" as="geometry">
            <mxPoint x="-86" y="95" as="sourcePoint" />
            <mxPoint x="-54" y="71" as="targetPoint" />
          </mxGeometry>
        </mxCell>
        <mxCell id="ku_li8XaRolx52DzUGt0-16" value="" style="endArrow=none;html=1;rounded=0;entryX=0.25;entryY=0;entryDx=0;entryDy=0;exitX=1;exitY=1;exitDx=0;exitDy=0;" parent="1" source="ku_li8XaRolx52DzUGt0-3" target="ku_li8XaRolx52DzUGt0-1" edge="1">
          <mxGeometry width="50" height="50" relative="1" as="geometry">
            <mxPoint x="-118" y="182" as="sourcePoint" />
            <mxPoint x="-80" y="180" as="targetPoint" />
          </mxGeometry>
        </mxCell>
        <mxCell id="ku_li8XaRolx52DzUGt0-17" value="" style="endArrow=none;html=1;rounded=0;entryX=0.75;entryY=0;entryDx=0;entryDy=0;exitX=0;exitY=1;exitDx=0;exitDy=0;" parent="1" source="ku_li8XaRolx52DzUGt0-2" target="ku_li8XaRolx52DzUGt0-1" edge="1">
          <mxGeometry width="50" height="50" relative="1" as="geometry">
            <mxPoint x="-86" y="124" as="sourcePoint" />
            <mxPoint x="-50" y="161" as="targetPoint" />
          </mxGeometry>
        </mxCell>
        <mxCell id="ku_li8XaRolx52DzUGt0-18" value="" style="endArrow=none;html=1;rounded=0;entryX=1;entryY=0.5;entryDx=0;entryDy=0;exitX=0;exitY=0.5;exitDx=0;exitDy=0;" parent="1" source="ku_li8XaRolx52DzUGt0-4" target="ku_li8XaRolx52DzUGt0-1" edge="1">
          <mxGeometry width="50" height="50" relative="1" as="geometry">
            <mxPoint x="56" y="124" as="sourcePoint" />
            <mxPoint x="10" y="161" as="targetPoint" />
          </mxGeometry>
        </mxCell>
        <mxCell id="ku_li8XaRolx52DzUGt0-1" value="PATIENT" style="rounded=0;whiteSpace=wrap;html=1;strokeColor=#FF0000;strokeWidth=5;shadow=0;fontSize=20" parent="1" vertex="1">
          <mxGeometry x="-90" y="151" width="120" height="37" as="geometry" />
        </mxCell>
        <mxCell id="ku_li8XaRolx52DzUGt0-2" value="&lt;u&gt;SSN&lt;/u&gt;" style="ellipse;whiteSpace=wrap;html=1;strokeColor=#0000FF;strokeWidth=5;fontSize=20" parent="1" vertex="1">
          <mxGeometry x="30" y="79" width="110" height="41" as="geometry" />
        </mxCell>
        <mxCell id="ku_li8XaRolx52DzUGt0-3" value="Name" style="ellipse;whiteSpace=wrap;html=1;strokeColor=#0000FF;strokeWidth=5;fontSize=20" parent="1" vertex="1">
          <mxGeometry x="-190" y="79" width="110" height="41" as="geometry" />
        </mxCell>
        <mxCell id="ku_li8XaRolx52DzUGt0-4" value="Age" style="ellipse;whiteSpace=wrap;html=1;strokeColor=#0000FF;strokeWidth=5;fontSize=20" parent="1" vertex="1">
          <mxGeometry x="68" y="149" width="110" height="41" as="geometry" />
        </mxCell>
        <mxCell id="ku_li8XaRolx52DzUGt0-5" value="Address" style="ellipse;whiteSpace=wrap;html=1;strokeColor=#0000FF;strokeWidth=5;fontSize=20" parent="1" vertex="1">
          <mxGeometry x="-238" y="151" width="110" height="41" as="geometry" />
        </mxCell>
        <mxCell id="ku_li8XaRolx52DzUGt0-6" value="Lname" style="ellipse;whiteSpace=wrap;html=1;strokeColor=#0000FF;strokeWidth=5;fontSize=20" parent="1" vertex="1">
          <mxGeometry x="-80" y="26" width="110" height="41" as="geometry" />
        </mxCell>
        <mxCell id="ku_li8XaRolx52DzUGt0-7" value="Minit" style="ellipse;whiteSpace=wrap;html=1;strokeColor=#0000FF;strokeWidth=5;fontSize=20" parent="1" vertex="1">
          <mxGeometry x="-190" y="-15" width="110" height="41" as="geometry" />
        </mxCell>
        <mxCell id="ku_li8XaRolx52DzUGt0-8" value="Fname" style="ellipse;whiteSpace=wrap;html=1;strokeColor=#0000FF;strokeWidth=5;fontSize=20" parent="1" vertex="1">
          <mxGeometry x="-300" y="26" width="110" height="41" as="geometry" />
        </mxCell>
      </root>
    </mxGraphModel>
  </diagram>
  <diagram id="Y5JDtpwPqsiEIeIYYd1o" name="Doctor ER Model">
    <mxGraphModel dx="2066" dy="1147" grid="0" gridSize="10" guides="1" tooltips="1" connect="1" arrows="1" fold="1" page="0" pageScale="1" pageWidth="850" pageHeight="1100" math="0" shadow="0">
      <root>
        <mxCell id="0" />
        <mxCell id="1" parent="0" />
        <mxCell id="_ArAhLPcBJFyJJ0UEvwg-1" value="" style="endArrow=none;html=1;rounded=0;entryX=0;entryY=0;entryDx=0;entryDy=0;exitX=1;exitY=1;exitDx=0;exitDy=0;" parent="1" source="_ArAhLPcBJFyJJ0UEvwg-15" target="_ArAhLPcBJFyJJ0UEvwg-10" edge="1">
          <mxGeometry width="50" height="50" relative="1" as="geometry">
            <mxPoint x="-251" y="140" as="sourcePoint" />
            <mxPoint x="-201" y="90" as="targetPoint" />
          </mxGeometry>
        </mxCell>
        <mxCell id="_ArAhLPcBJFyJJ0UEvwg-2" value="" style="endArrow=none;html=1;rounded=0;entryX=0.5;entryY=0;entryDx=0;entryDy=0;exitX=0.5;exitY=1;exitDx=0;exitDy=0;" parent="1" source="_ArAhLPcBJFyJJ0UEvwg-14" target="_ArAhLPcBJFyJJ0UEvwg-10" edge="1">
          <mxGeometry width="50" height="50" relative="1" as="geometry">
            <mxPoint x="-196" y="71" as="sourcePoint" />
            <mxPoint x="-164" y="95" as="targetPoint" />
          </mxGeometry>
        </mxCell>
        <mxCell id="_ArAhLPcBJFyJJ0UEvwg-3" value="" style="endArrow=none;html=1;rounded=0;entryX=0;entryY=1;entryDx=0;entryDy=0;exitX=1;exitY=0;exitDx=0;exitDy=0;" parent="1" source="_ArAhLPcBJFyJJ0UEvwg-10" target="_ArAhLPcBJFyJJ0UEvwg-13" edge="1">
          <mxGeometry width="50" height="50" relative="1" as="geometry">
            <mxPoint x="-86" y="81" as="sourcePoint" />
            <mxPoint x="-54" y="105" as="targetPoint" />
          </mxGeometry>
        </mxCell>
        <mxCell id="_ArAhLPcBJFyJJ0UEvwg-4" value="" style="endArrow=none;html=1;rounded=0;entryX=0;entryY=0.5;entryDx=0;entryDy=0;exitX=1;exitY=0.5;exitDx=0;exitDy=0;" parent="1" source="_ArAhLPcBJFyJJ0UEvwg-12" target="_ArAhLPcBJFyJJ0UEvwg-8" edge="1">
          <mxGeometry width="50" height="50" relative="1" as="geometry">
            <mxPoint x="-86" y="95" as="sourcePoint" />
            <mxPoint x="-54" y="71" as="targetPoint" />
          </mxGeometry>
        </mxCell>
        <mxCell id="_ArAhLPcBJFyJJ0UEvwg-5" value="" style="endArrow=none;html=1;rounded=0;entryX=0.25;entryY=0;entryDx=0;entryDy=0;exitX=1;exitY=1;exitDx=0;exitDy=0;" parent="1" source="_ArAhLPcBJFyJJ0UEvwg-10" target="_ArAhLPcBJFyJJ0UEvwg-8" edge="1">
          <mxGeometry width="50" height="50" relative="1" as="geometry">
            <mxPoint x="-118" y="182" as="sourcePoint" />
            <mxPoint x="-80" y="180" as="targetPoint" />
          </mxGeometry>
        </mxCell>
        <mxCell id="_ArAhLPcBJFyJJ0UEvwg-6" value="" style="endArrow=none;html=1;rounded=0;entryX=0.75;entryY=0;entryDx=0;entryDy=0;exitX=0;exitY=1;exitDx=0;exitDy=0;" parent="1" source="_ArAhLPcBJFyJJ0UEvwg-9" target="_ArAhLPcBJFyJJ0UEvwg-8" edge="1">
          <mxGeometry width="50" height="50" relative="1" as="geometry">
            <mxPoint x="-86" y="124" as="sourcePoint" />
            <mxPoint x="-50" y="161" as="targetPoint" />
          </mxGeometry>
        </mxCell>
        <mxCell id="_ArAhLPcBJFyJJ0UEvwg-7" value="" style="endArrow=none;html=1;rounded=0;entryX=1;entryY=0.5;entryDx=0;entryDy=0;exitX=0;exitY=0.5;exitDx=0;exitDy=0;" parent="1" source="_ArAhLPcBJFyJJ0UEvwg-11" target="_ArAhLPcBJFyJJ0UEvwg-8" edge="1">
          <mxGeometry width="50" height="50" relative="1" as="geometry">
            <mxPoint x="56" y="124" as="sourcePoint" />
            <mxPoint x="10" y="161" as="targetPoint" />
          </mxGeometry>
        </mxCell>
        <mxCell id="_ArAhLPcBJFyJJ0UEvwg-8" value="DOCTOR" style="rounded=0;whiteSpace=wrap;html=1;strokeColor=#FF0000;strokeWidth=5;shadow=0;fontSize=20" parent="1" vertex="1">
          <mxGeometry x="-90" y="151" width="120" height="37" as="geometry" />
        </mxCell>
        <mxCell id="_ArAhLPcBJFyJJ0UEvwg-9" value="&lt;u&gt;SSN&lt;/u&gt;" style="ellipse;whiteSpace=wrap;html=1;strokeColor=#0000FF;strokeWidth=5;fontSize=20" parent="1" vertex="1">
          <mxGeometry x="30" y="79" width="110" height="41" as="geometry" />
        </mxCell>
        <mxCell id="_ArAhLPcBJFyJJ0UEvwg-10" value="Name" style="ellipse;whiteSpace=wrap;html=1;strokeColor=#0000FF;strokeWidth=5;fontSize=20" parent="1" vertex="1">
          <mxGeometry x="-190" y="79" width="110" height="41" as="geometry" />
        </mxCell>
        <mxCell id="_ArAhLPcBJFyJJ0UEvwg-11" value="Specialty" style="ellipse;whiteSpace=wrap;html=1;strokeColor=#0000FF;strokeWidth=5;fontSize=20" parent="1" vertex="1">
          <mxGeometry x="68" y="149" width="110" height="41" as="geometry" />
        </mxCell>
        <mxCell id="_ArAhLPcBJFyJJ0UEvwg-12" value="YrsExperience" style="ellipse;whiteSpace=wrap;html=1;strokeColor=#0000FF;strokeWidth=5;fontSize=20" parent="1" vertex="1">
          <mxGeometry x="-286" y="151" width="158" height="41" as="geometry" />
        </mxCell>
        <mxCell id="_ArAhLPcBJFyJJ0UEvwg-13" value="Lname" style="ellipse;whiteSpace=wrap;html=1;strokeColor=#0000FF;strokeWidth=5;fontSize=20" parent="1" vertex="1">
          <mxGeometry x="-80" y="26" width="110" height="41" as="geometry" />
        </mxCell>
        <mxCell id="_ArAhLPcBJFyJJ0UEvwg-14" value="Minit" style="ellipse;whiteSpace=wrap;html=1;strokeColor=#0000FF;strokeWidth=5;fontSize=20" parent="1" vertex="1">
          <mxGeometry x="-190" y="-15" width="110" height="41" as="geometry" />
        </mxCell>
        <mxCell id="_ArAhLPcBJFyJJ0UEvwg-15" value="Fname" style="ellipse;whiteSpace=wrap;html=1;strokeColor=#0000FF;strokeWidth=5;fontSize=20" parent="1" vertex="1">
          <mxGeometry x="-300" y="26" width="110" height="41" as="geometry" />
        </mxCell>
      </root>
    </mxGraphModel>
  </diagram>
  <diagram id="tFVcGM7qBd2msJeawv6Y" name="Pharmacy ER Model">
    <mxGraphModel dx="1426" dy="747" grid="1" gridSize="10" guides="1" tooltips="1" connect="1" arrows="1" fold="1" page="1" pageScale="1" pageWidth="850" pageHeight="1100" math="0" shadow="0">
      <root>
        <mxCell id="0" />
        <mxCell id="1" parent="0" />
        <mxCell id="OzTdg4Km_PaCVCI8IC46-4" value="" style="endArrow=none;html=1;rounded=0;entryX=0;entryY=0;entryDx=0;entryDy=0;exitX=1;exitY=1;exitDx=0;exitDy=0;" parent="1" source="OzTdg4Km_PaCVCI8IC46-12" target="OzTdg4Km_PaCVCI8IC46-8" edge="1">
          <mxGeometry width="50" height="50" relative="1" as="geometry">
            <mxPoint x="314" y="375" as="sourcePoint" />
            <mxPoint x="346" y="351" as="targetPoint" />
          </mxGeometry>
        </mxCell>
        <mxCell id="OzTdg4Km_PaCVCI8IC46-5" value="" style="endArrow=none;html=1;rounded=0;entryX=0.5;entryY=0;entryDx=0;entryDy=0;exitX=0.5;exitY=1;exitDx=0;exitDy=0;" parent="1" source="OzTdg4Km_PaCVCI8IC46-10" target="OzTdg4Km_PaCVCI8IC46-8" edge="1">
          <mxGeometry width="50" height="50" relative="1" as="geometry">
            <mxPoint x="282" y="462" as="sourcePoint" />
            <mxPoint x="320" y="460" as="targetPoint" />
          </mxGeometry>
        </mxCell>
        <mxCell id="OzTdg4Km_PaCVCI8IC46-7" value="" style="endArrow=none;html=1;rounded=0;entryX=1;entryY=0;entryDx=0;entryDy=0;exitX=0;exitY=1;exitDx=0;exitDy=0;" parent="1" source="OzTdg4Km_PaCVCI8IC46-11" target="OzTdg4Km_PaCVCI8IC46-8" edge="1">
          <mxGeometry width="50" height="50" relative="1" as="geometry">
            <mxPoint x="456" y="404" as="sourcePoint" />
            <mxPoint x="410" y="441" as="targetPoint" />
          </mxGeometry>
        </mxCell>
        <mxCell id="OzTdg4Km_PaCVCI8IC46-8" value="PHARMACY" style="rounded=0;whiteSpace=wrap;html=1;strokeColor=#FF0000;strokeWidth=5;shadow=0;fontSize=20" parent="1" vertex="1">
          <mxGeometry x="310" y="431" width="120" height="37" as="geometry" />
        </mxCell>
        <mxCell id="OzTdg4Km_PaCVCI8IC46-10" value="Name" style="ellipse;whiteSpace=wrap;html=1;strokeColor=#0000FF;strokeWidth=5;fontSize=20" parent="1" vertex="1">
          <mxGeometry x="315" y="350" width="110" height="41" as="geometry" />
        </mxCell>
        <mxCell id="OzTdg4Km_PaCVCI8IC46-11" value="PhoneNum" style="ellipse;whiteSpace=wrap;html=1;strokeColor=#0000FF;strokeWidth=5;fontSize=20" parent="1" vertex="1">
          <mxGeometry x="450" y="350" width="120" height="41" as="geometry" />
        </mxCell>
        <mxCell id="OzTdg4Km_PaCVCI8IC46-12" value="&lt;u&gt;Address&lt;/u&gt;" style="ellipse;whiteSpace=wrap;html=1;strokeColor=#0000FF;strokeWidth=5;fontSize=20" parent="1" vertex="1">
          <mxGeometry x="180" y="350" width="110" height="41" as="geometry" />
        </mxCell>
      </root>
    </mxGraphModel>
  </diagram>
  <diagram id="LaqFRM5St9zyfDmB8JcZ" name="Drug ER Model">
    <mxGraphModel dx="1426" dy="747" grid="1" gridSize="10" guides="1" tooltips="1" connect="1" arrows="1" fold="1" page="1" pageScale="1" pageWidth="850" pageHeight="1100" math="0" shadow="0">
      <root>
        <mxCell id="0" />
        <mxCell id="1" parent="0" />
        <mxCell id="iIO4CcfeRFO7P4AWn61H-5" value="" style="endArrow=none;html=1;rounded=0;entryX=0.25;entryY=0;entryDx=0;entryDy=0;exitX=1;exitY=1;exitDx=0;exitDy=0;" edge="1" parent="1" source="iIO4CcfeRFO7P4AWn61H-10" target="iIO4CcfeRFO7P4AWn61H-8">
          <mxGeometry width="50" height="50" relative="1" as="geometry">
            <mxPoint x="352" y="563" as="sourcePoint" />
            <mxPoint x="390" y="561" as="targetPoint" />
          </mxGeometry>
        </mxCell>
        <mxCell id="iIO4CcfeRFO7P4AWn61H-6" value="" style="endArrow=none;html=1;rounded=0;entryX=0.75;entryY=0;entryDx=0;entryDy=0;exitX=0;exitY=1;exitDx=0;exitDy=0;" edge="1" parent="1" source="iIO4CcfeRFO7P4AWn61H-9" target="iIO4CcfeRFO7P4AWn61H-8">
          <mxGeometry width="50" height="50" relative="1" as="geometry">
            <mxPoint x="384" y="505" as="sourcePoint" />
            <mxPoint x="420" y="542" as="targetPoint" />
          </mxGeometry>
        </mxCell>
        <mxCell id="iIO4CcfeRFO7P4AWn61H-8" value="DRUG" style="rounded=0;whiteSpace=wrap;html=1;strokeColor=#FF0000;strokeWidth=5;shadow=0;fontSize=20" vertex="1" parent="1">
          <mxGeometry x="380" y="532" width="120" height="37" as="geometry" />
        </mxCell>
        <mxCell id="iIO4CcfeRFO7P4AWn61H-9" value="Formula" style="ellipse;whiteSpace=wrap;html=1;strokeColor=#0000FF;strokeWidth=5;fontSize=20" vertex="1" parent="1">
          <mxGeometry x="500" y="460" width="110" height="41" as="geometry" />
        </mxCell>
        <mxCell id="iIO4CcfeRFO7P4AWn61H-10" value="&lt;u&gt;TradeName&lt;/u&gt;" style="ellipse;whiteSpace=wrap;html=1;strokeColor=#0000FF;strokeWidth=5;fontSize=20" vertex="1" parent="1">
          <mxGeometry x="270" y="460" width="120" height="41" as="geometry" />
        </mxCell>
      </root>
    </mxGraphModel>
  </diagram>
  <diagram id="FJSslsdgjY3eocJ4cvBO" name="Pharm_Company ER Model">
    <mxGraphModel dx="1426" dy="747" grid="1" gridSize="10" guides="1" tooltips="1" connect="1" arrows="1" fold="1" page="1" pageScale="1" pageWidth="850" pageHeight="1100" math="0" shadow="0">
      <root>
        <mxCell id="0" />
        <mxCell id="1" parent="0" />
        <mxCell id="E57EeAnTir0jbj_7EDZm-1" value="" style="endArrow=none;html=1;rounded=0;entryX=0.25;entryY=0;entryDx=0;entryDy=0;exitX=1;exitY=1;exitDx=0;exitDy=0;" edge="1" parent="1" source="E57EeAnTir0jbj_7EDZm-5" target="E57EeAnTir0jbj_7EDZm-3">
          <mxGeometry width="50" height="50" relative="1" as="geometry">
            <mxPoint x="322" y="599" as="sourcePoint" />
            <mxPoint x="360" y="597" as="targetPoint" />
          </mxGeometry>
        </mxCell>
        <mxCell id="E57EeAnTir0jbj_7EDZm-2" value="" style="endArrow=none;html=1;rounded=0;entryX=0.75;entryY=0;entryDx=0;entryDy=0;exitX=0;exitY=1;exitDx=0;exitDy=0;" edge="1" parent="1" source="E57EeAnTir0jbj_7EDZm-4" target="E57EeAnTir0jbj_7EDZm-3">
          <mxGeometry width="50" height="50" relative="1" as="geometry">
            <mxPoint x="354" y="541" as="sourcePoint" />
            <mxPoint x="390" y="578" as="targetPoint" />
          </mxGeometry>
        </mxCell>
        <mxCell id="E57EeAnTir0jbj_7EDZm-3" value="PHARM_COMPANY" style="rounded=0;whiteSpace=wrap;html=1;strokeColor=#FF0000;strokeWidth=5;shadow=0;fontSize=20" vertex="1" parent="1">
          <mxGeometry x="324" y="568" width="190" height="37" as="geometry" />
        </mxCell>
        <mxCell id="E57EeAnTir0jbj_7EDZm-4" value="&lt;u&gt;Name&lt;/u&gt;" style="ellipse;whiteSpace=wrap;html=1;strokeColor=#0000FF;strokeWidth=5;fontSize=20" vertex="1" parent="1">
          <mxGeometry x="470" y="496" width="110" height="41" as="geometry" />
        </mxCell>
        <mxCell id="E57EeAnTir0jbj_7EDZm-5" value="PhoneNum" style="ellipse;whiteSpace=wrap;html=1;strokeColor=#0000FF;strokeWidth=5;fontSize=20" vertex="1" parent="1">
          <mxGeometry x="240" y="496" width="120" height="41" as="geometry" />
        </mxCell>
      </root>
    </mxGraphModel>
  </diagram>
  <diagram id="HQCrpw1pRxt-ngbdVQ6n" name="Patient Doctor Relationship">
    <mxGraphModel dx="1892" dy="1727" grid="1" gridSize="10" guides="1" tooltips="1" connect="1" arrows="1" fold="1" page="1" pageScale="1" pageWidth="850" pageHeight="1100" math="0" shadow="0">
      <root>
        <mxCell id="0" />
        <mxCell id="1" parent="0" />
        <mxCell id="TQYYoZ678dQfiH2W4duZ-16" value="" style="endArrow=none;html=1;rounded=0;exitX=1;exitY=0.5;exitDx=0;exitDy=0;entryX=0;entryY=0.5;entryDx=0;entryDy=0;shape=link;" parent="1" target="TQYYoZ678dQfiH2W4duZ-8" edge="1">
          <mxGeometry width="50" height="50" relative="1" as="geometry">
            <mxPoint x="400" y="169.5" as="sourcePoint" />
            <mxPoint x="170" y="180" as="targetPoint" />
          </mxGeometry>
        </mxCell>
        <mxCell id="TQYYoZ678dQfiH2W4duZ-19" value="1" style="edgeLabel;html=1;align=center;verticalAlign=middle;resizable=0;points=[];fontSize=20;" parent="TQYYoZ678dQfiH2W4duZ-16" vertex="1" connectable="0">
          <mxGeometry x="-0.175" relative="1" as="geometry">
            <mxPoint x="-8" y="-18" as="offset" />
          </mxGeometry>
        </mxCell>
        <mxCell id="yfL6JUZIZkKFRTcqv0q2-1" value="" style="endArrow=none;html=1;rounded=0;exitX=1;exitY=0.5;exitDx=0;exitDy=0;entryX=0;entryY=0.5;entryDx=0;entryDy=0;shape=link;" parent="1" source="QLpQPgBViG24llPX7Iwd-8" target="QLpQPgBViG24llPX7Iwd-16" edge="1">
          <mxGeometry width="50" height="50" relative="1" as="geometry">
            <mxPoint x="50" y="180" as="sourcePoint" />
            <mxPoint x="100" y="130" as="targetPoint" />
          </mxGeometry>
        </mxCell>
        <mxCell id="TQYYoZ678dQfiH2W4duZ-17" value="N" style="edgeLabel;html=1;align=center;verticalAlign=middle;resizable=0;points=[];fontSize=20;" parent="yfL6JUZIZkKFRTcqv0q2-1" vertex="1" connectable="0">
          <mxGeometry x="-0.2" relative="1" as="geometry">
            <mxPoint x="28" y="-18" as="offset" />
          </mxGeometry>
        </mxCell>
        <mxCell id="QLpQPgBViG24llPX7Iwd-1" value="" style="endArrow=none;html=1;rounded=0;entryX=0;entryY=0;entryDx=0;entryDy=0;exitX=1;exitY=1;exitDx=0;exitDy=0;" parent="1" source="QLpQPgBViG24llPX7Iwd-15" target="QLpQPgBViG24llPX7Iwd-10" edge="1">
          <mxGeometry width="50" height="50" relative="1" as="geometry">
            <mxPoint x="-181" y="125" as="sourcePoint" />
            <mxPoint x="-131" y="75" as="targetPoint" />
          </mxGeometry>
        </mxCell>
        <mxCell id="QLpQPgBViG24llPX7Iwd-2" value="" style="endArrow=none;html=1;rounded=0;entryX=0.5;entryY=0;entryDx=0;entryDy=0;exitX=0.5;exitY=1;exitDx=0;exitDy=0;" parent="1" source="QLpQPgBViG24llPX7Iwd-14" target="QLpQPgBViG24llPX7Iwd-10" edge="1">
          <mxGeometry width="50" height="50" relative="1" as="geometry">
            <mxPoint x="-126" y="56" as="sourcePoint" />
            <mxPoint x="-94" y="80" as="targetPoint" />
          </mxGeometry>
        </mxCell>
        <mxCell id="QLpQPgBViG24llPX7Iwd-3" value="" style="endArrow=none;html=1;rounded=0;entryX=0;entryY=1;entryDx=0;entryDy=0;exitX=1;exitY=0;exitDx=0;exitDy=0;" parent="1" source="QLpQPgBViG24llPX7Iwd-10" target="QLpQPgBViG24llPX7Iwd-13" edge="1">
          <mxGeometry width="50" height="50" relative="1" as="geometry">
            <mxPoint x="-16" y="66" as="sourcePoint" />
            <mxPoint x="16" y="90" as="targetPoint" />
          </mxGeometry>
        </mxCell>
        <mxCell id="QLpQPgBViG24llPX7Iwd-4" value="" style="endArrow=none;html=1;rounded=0;entryX=0;entryY=0.5;entryDx=0;entryDy=0;exitX=1;exitY=0.5;exitDx=0;exitDy=0;" parent="1" source="QLpQPgBViG24llPX7Iwd-12" target="QLpQPgBViG24llPX7Iwd-8" edge="1">
          <mxGeometry width="50" height="50" relative="1" as="geometry">
            <mxPoint x="-36" y="95" as="sourcePoint" />
            <mxPoint x="-4" y="71" as="targetPoint" />
          </mxGeometry>
        </mxCell>
        <mxCell id="QLpQPgBViG24llPX7Iwd-5" value="" style="endArrow=none;html=1;rounded=0;entryX=0.25;entryY=0;entryDx=0;entryDy=0;exitX=1;exitY=1;exitDx=0;exitDy=0;" parent="1" source="QLpQPgBViG24llPX7Iwd-10" target="QLpQPgBViG24llPX7Iwd-8" edge="1">
          <mxGeometry width="50" height="50" relative="1" as="geometry">
            <mxPoint x="-68" y="182" as="sourcePoint" />
            <mxPoint x="-30" y="180" as="targetPoint" />
          </mxGeometry>
        </mxCell>
        <mxCell id="QLpQPgBViG24llPX7Iwd-6" value="" style="endArrow=none;html=1;rounded=0;entryX=0.25;entryY=1;entryDx=0;entryDy=0;exitX=1;exitY=0;exitDx=0;exitDy=0;" parent="1" source="QLpQPgBViG24llPX7Iwd-9" target="QLpQPgBViG24llPX7Iwd-8" edge="1">
          <mxGeometry width="50" height="50" relative="1" as="geometry">
            <mxPoint x="-36" y="124" as="sourcePoint" />
            <mxPoint y="161" as="targetPoint" />
          </mxGeometry>
        </mxCell>
        <mxCell id="QLpQPgBViG24llPX7Iwd-7" value="" style="endArrow=none;html=1;rounded=0;exitX=0.5;exitY=0;exitDx=0;exitDy=0;entryX=0.75;entryY=1;entryDx=0;entryDy=0;" parent="1" source="QLpQPgBViG24llPX7Iwd-11" target="QLpQPgBViG24llPX7Iwd-8" edge="1">
          <mxGeometry width="50" height="50" relative="1" as="geometry">
            <mxPoint x="106" y="124" as="sourcePoint" />
            <mxPoint x="50" y="200" as="targetPoint" />
          </mxGeometry>
        </mxCell>
        <mxCell id="QLpQPgBViG24llPX7Iwd-8" value="PATIENT" style="rounded=0;whiteSpace=wrap;html=1;strokeColor=#FF0000;strokeWidth=5;shadow=0;fontSize=20" parent="1" vertex="1">
          <mxGeometry x="-40" y="151" width="120" height="37" as="geometry" />
        </mxCell>
        <mxCell id="QLpQPgBViG24llPX7Iwd-9" value="&lt;u&gt;SSN&lt;/u&gt;" style="ellipse;whiteSpace=wrap;html=1;strokeColor=#0000FF;strokeWidth=5;fontSize=20" parent="1" vertex="1">
          <mxGeometry x="-140" y="230" width="110" height="41" as="geometry" />
        </mxCell>
        <mxCell id="QLpQPgBViG24llPX7Iwd-10" value="Name" style="ellipse;whiteSpace=wrap;html=1;strokeColor=#0000FF;strokeWidth=5;fontSize=20" parent="1" vertex="1">
          <mxGeometry x="-120" y="64" width="110" height="41" as="geometry" />
        </mxCell>
        <mxCell id="QLpQPgBViG24llPX7Iwd-11" value="Age" style="ellipse;whiteSpace=wrap;html=1;strokeColor=#0000FF;strokeWidth=5;fontSize=20" parent="1" vertex="1">
          <mxGeometry x="-10" y="230" width="110" height="41" as="geometry" />
        </mxCell>
        <mxCell id="QLpQPgBViG24llPX7Iwd-12" value="Address" style="ellipse;whiteSpace=wrap;html=1;strokeColor=#0000FF;strokeWidth=5;fontSize=20" parent="1" vertex="1">
          <mxGeometry x="-188" y="149" width="110" height="41" as="geometry" />
        </mxCell>
        <mxCell id="QLpQPgBViG24llPX7Iwd-13" value="Lname" style="ellipse;whiteSpace=wrap;html=1;strokeColor=#0000FF;strokeWidth=5;fontSize=20" parent="1" vertex="1">
          <mxGeometry x="-10" y="11" width="110" height="41" as="geometry" />
        </mxCell>
        <mxCell id="QLpQPgBViG24llPX7Iwd-14" value="Minit" style="ellipse;whiteSpace=wrap;html=1;strokeColor=#0000FF;strokeWidth=5;fontSize=20" parent="1" vertex="1">
          <mxGeometry x="-120" y="-30" width="110" height="41" as="geometry" />
        </mxCell>
        <mxCell id="QLpQPgBViG24llPX7Iwd-15" value="Fname" style="ellipse;whiteSpace=wrap;html=1;strokeColor=#0000FF;strokeWidth=5;fontSize=20" parent="1" vertex="1">
          <mxGeometry x="-230" y="11" width="110" height="41" as="geometry" />
        </mxCell>
        <mxCell id="QLpQPgBViG24llPX7Iwd-16" value="PRIMARY_DOCTOR" style="rhombus;whiteSpace=wrap;html=1;strokeColor=light-dark(#EE12CE,#FFFFFF);strokeWidth=5;fontSize=20" parent="1" vertex="1">
          <mxGeometry x="160" y="103.75" width="240" height="131.5" as="geometry" />
        </mxCell>
        <mxCell id="TQYYoZ678dQfiH2W4duZ-1" value="" style="endArrow=none;html=1;rounded=0;entryX=0;entryY=0;entryDx=0;entryDy=0;exitX=1;exitY=1;exitDx=0;exitDy=0;" parent="1" source="TQYYoZ678dQfiH2W4duZ-15" target="TQYYoZ678dQfiH2W4duZ-10" edge="1">
          <mxGeometry width="50" height="50" relative="1" as="geometry">
            <mxPoint x="409" y="135" as="sourcePoint" />
            <mxPoint x="459" y="85" as="targetPoint" />
          </mxGeometry>
        </mxCell>
        <mxCell id="TQYYoZ678dQfiH2W4duZ-2" value="" style="endArrow=none;html=1;rounded=0;entryX=0.5;entryY=0;entryDx=0;entryDy=0;exitX=0.5;exitY=1;exitDx=0;exitDy=0;" parent="1" source="TQYYoZ678dQfiH2W4duZ-14" target="TQYYoZ678dQfiH2W4duZ-10" edge="1">
          <mxGeometry width="50" height="50" relative="1" as="geometry">
            <mxPoint x="464" y="66" as="sourcePoint" />
            <mxPoint x="496" y="90" as="targetPoint" />
          </mxGeometry>
        </mxCell>
        <mxCell id="TQYYoZ678dQfiH2W4duZ-3" value="" style="endArrow=none;html=1;rounded=0;entryX=0;entryY=1;entryDx=0;entryDy=0;exitX=1;exitY=0;exitDx=0;exitDy=0;" parent="1" source="TQYYoZ678dQfiH2W4duZ-10" target="TQYYoZ678dQfiH2W4duZ-13" edge="1">
          <mxGeometry width="50" height="50" relative="1" as="geometry">
            <mxPoint x="574" y="76" as="sourcePoint" />
            <mxPoint x="606" y="100" as="targetPoint" />
          </mxGeometry>
        </mxCell>
        <mxCell id="TQYYoZ678dQfiH2W4duZ-4" value="" style="endArrow=none;html=1;rounded=0;entryX=0.25;entryY=1;entryDx=0;entryDy=0;exitX=1;exitY=0;exitDx=0;exitDy=0;" parent="1" source="TQYYoZ678dQfiH2W4duZ-12" target="TQYYoZ678dQfiH2W4duZ-8" edge="1">
          <mxGeometry width="50" height="50" relative="1" as="geometry">
            <mxPoint x="484" y="91" as="sourcePoint" />
            <mxPoint x="516" y="67" as="targetPoint" />
          </mxGeometry>
        </mxCell>
        <mxCell id="TQYYoZ678dQfiH2W4duZ-5" value="" style="endArrow=none;html=1;rounded=0;entryX=0.5;entryY=0;entryDx=0;entryDy=0;exitX=0.5;exitY=1;exitDx=0;exitDy=0;" parent="1" source="TQYYoZ678dQfiH2W4duZ-10" target="TQYYoZ678dQfiH2W4duZ-8" edge="1">
          <mxGeometry width="50" height="50" relative="1" as="geometry">
            <mxPoint x="452" y="178" as="sourcePoint" />
            <mxPoint x="490" y="176" as="targetPoint" />
          </mxGeometry>
        </mxCell>
        <mxCell id="TQYYoZ678dQfiH2W4duZ-6" value="" style="endArrow=none;html=1;rounded=0;entryX=1;entryY=0.5;entryDx=0;entryDy=0;exitX=0;exitY=0.5;exitDx=0;exitDy=0;" parent="1" source="TQYYoZ678dQfiH2W4duZ-9" target="TQYYoZ678dQfiH2W4duZ-8" edge="1">
          <mxGeometry width="50" height="50" relative="1" as="geometry">
            <mxPoint x="484" y="120" as="sourcePoint" />
            <mxPoint x="520" y="157" as="targetPoint" />
          </mxGeometry>
        </mxCell>
        <mxCell id="TQYYoZ678dQfiH2W4duZ-7" value="" style="endArrow=none;html=1;rounded=0;entryX=0.75;entryY=1;entryDx=0;entryDy=0;exitX=0;exitY=0;exitDx=0;exitDy=0;" parent="1" source="TQYYoZ678dQfiH2W4duZ-11" target="TQYYoZ678dQfiH2W4duZ-8" edge="1">
          <mxGeometry width="50" height="50" relative="1" as="geometry">
            <mxPoint x="626" y="120" as="sourcePoint" />
            <mxPoint x="580" y="157" as="targetPoint" />
          </mxGeometry>
        </mxCell>
        <mxCell id="TQYYoZ678dQfiH2W4duZ-8" value="DOCTOR" style="rounded=0;whiteSpace=wrap;html=1;strokeColor=#FF0000;strokeWidth=5;shadow=0;fontSize=20" parent="1" vertex="1">
          <mxGeometry x="480" y="151" width="120" height="37" as="geometry" />
        </mxCell>
        <mxCell id="TQYYoZ678dQfiH2W4duZ-9" value="&lt;u&gt;SSN&lt;/u&gt;" style="ellipse;whiteSpace=wrap;html=1;strokeColor=#0000FF;strokeWidth=5;fontSize=20" parent="1" vertex="1">
          <mxGeometry x="630" y="149" width="110" height="41" as="geometry" />
        </mxCell>
        <mxCell id="TQYYoZ678dQfiH2W4duZ-10" value="Name" style="ellipse;whiteSpace=wrap;html=1;strokeColor=#0000FF;strokeWidth=5;fontSize=20" parent="1" vertex="1">
          <mxGeometry x="470" y="74" width="110" height="41" as="geometry" />
        </mxCell>
        <mxCell id="TQYYoZ678dQfiH2W4duZ-11" value="Specialty" style="ellipse;whiteSpace=wrap;html=1;strokeColor=#0000FF;strokeWidth=5;fontSize=20" parent="1" vertex="1">
          <mxGeometry x="580" y="230" width="110" height="41" as="geometry" />
        </mxCell>
        <mxCell id="TQYYoZ678dQfiH2W4duZ-12" value="YrsExperience" style="ellipse;whiteSpace=wrap;html=1;strokeColor=#0000FF;strokeWidth=5;fontSize=20" parent="1" vertex="1">
          <mxGeometry x="390" y="230" width="158" height="41" as="geometry" />
        </mxCell>
        <mxCell id="TQYYoZ678dQfiH2W4duZ-13" value="Lname" style="ellipse;whiteSpace=wrap;html=1;strokeColor=#0000FF;strokeWidth=5;fontSize=20" parent="1" vertex="1">
          <mxGeometry x="580" y="21" width="110" height="41" as="geometry" />
        </mxCell>
        <mxCell id="TQYYoZ678dQfiH2W4duZ-14" value="Minit" style="ellipse;whiteSpace=wrap;html=1;strokeColor=#0000FF;strokeWidth=5;fontSize=20" parent="1" vertex="1">
          <mxGeometry x="470" y="-20" width="110" height="41" as="geometry" />
        </mxCell>
        <mxCell id="TQYYoZ678dQfiH2W4duZ-15" value="Fname" style="ellipse;whiteSpace=wrap;html=1;strokeColor=#0000FF;strokeWidth=5;fontSize=20" parent="1" vertex="1">
          <mxGeometry x="360" y="21" width="110" height="41" as="geometry" />
        </mxCell>
      </root>
    </mxGraphModel>
  </diagram>
  <diagram id="9CXUynUHAcJfRIznuB2V" name="Pharmacy Drug Relationship">
    <mxGraphModel dx="2132" dy="627" grid="1" gridSize="10" guides="1" tooltips="1" connect="1" arrows="1" fold="1" page="1" pageScale="1" pageWidth="850" pageHeight="1100" math="0" shadow="0">
      <root>
        <mxCell id="0" />
        <mxCell id="1" parent="0" />
        <mxCell id="opF8d5PxlfySA1WAjvoY-1" value="" style="endArrow=none;html=1;rounded=0;exitX=1;exitY=0.5;exitDx=0;exitDy=0;entryX=0;entryY=0.5;entryDx=0;entryDy=0;shape=link;" parent="1" source="mXORloEy8SjalJCC5QLW-4" target="K_BKSZiybISKc71cixDu-1" edge="1">
          <mxGeometry width="50" height="50" relative="1" as="geometry">
            <mxPoint x="80" y="170" as="sourcePoint" />
            <mxPoint x="160" y="170" as="targetPoint" />
          </mxGeometry>
        </mxCell>
        <mxCell id="opF8d5PxlfySA1WAjvoY-2" value="N" style="edgeLabel;html=1;align=center;verticalAlign=middle;resizable=0;points=[];fontSize=20;" parent="opF8d5PxlfySA1WAjvoY-1" vertex="1" connectable="0">
          <mxGeometry x="-0.2" relative="1" as="geometry">
            <mxPoint x="28" y="-18" as="offset" />
          </mxGeometry>
        </mxCell>
        <mxCell id="opF8d5PxlfySA1WAjvoY-3" value="" style="endArrow=none;html=1;rounded=0;exitX=0;exitY=0.5;exitDx=0;exitDy=0;" parent="1" source="K9mMDOWby0U6XcUwEBsY-3" target="K_BKSZiybISKc71cixDu-1" edge="1">
          <mxGeometry width="50" height="50" relative="1" as="geometry">
            <mxPoint x="90" y="180" as="sourcePoint" />
            <mxPoint x="170" y="180" as="targetPoint" />
          </mxGeometry>
        </mxCell>
        <mxCell id="opF8d5PxlfySA1WAjvoY-4" value="M" style="edgeLabel;html=1;align=center;verticalAlign=middle;resizable=0;points=[];fontSize=20;" parent="opF8d5PxlfySA1WAjvoY-3" vertex="1" connectable="0">
          <mxGeometry x="-0.2" relative="1" as="geometry">
            <mxPoint x="-28" y="-18" as="offset" />
          </mxGeometry>
        </mxCell>
        <mxCell id="K_BKSZiybISKc71cixDu-1" value="SELLS" style="rhombus;whiteSpace=wrap;html=1;strokeColor=light-dark(#EE12CE,#FFFFFF);strokeWidth=5;fontSize=20" parent="1" vertex="1">
          <mxGeometry x="280" y="274.75" width="240" height="131.5" as="geometry" />
        </mxCell>
        <mxCell id="K9mMDOWby0U6XcUwEBsY-1" value="" style="endArrow=none;html=1;rounded=0;entryX=0.75;entryY=1;entryDx=0;entryDy=0;exitX=0;exitY=0;exitDx=0;exitDy=0;" parent="1" source="K9mMDOWby0U6XcUwEBsY-5" target="K9mMDOWby0U6XcUwEBsY-3" edge="1">
          <mxGeometry width="50" height="50" relative="1" as="geometry">
            <mxPoint x="572" y="353" as="sourcePoint" />
            <mxPoint x="610" y="351" as="targetPoint" />
          </mxGeometry>
        </mxCell>
        <mxCell id="K9mMDOWby0U6XcUwEBsY-2" value="" style="endArrow=none;html=1;rounded=0;entryX=0.75;entryY=0;entryDx=0;entryDy=0;exitX=0;exitY=1;exitDx=0;exitDy=0;" parent="1" source="K9mMDOWby0U6XcUwEBsY-4" target="K9mMDOWby0U6XcUwEBsY-3" edge="1">
          <mxGeometry width="50" height="50" relative="1" as="geometry">
            <mxPoint x="604" y="295" as="sourcePoint" />
            <mxPoint x="640" y="332" as="targetPoint" />
          </mxGeometry>
        </mxCell>
        <mxCell id="K9mMDOWby0U6XcUwEBsY-3" value="DRUG" style="rounded=0;whiteSpace=wrap;html=1;strokeColor=#FF0000;strokeWidth=5;shadow=0;fontSize=20" parent="1" vertex="1">
          <mxGeometry x="600" y="322" width="120" height="37" as="geometry" />
        </mxCell>
        <mxCell id="K9mMDOWby0U6XcUwEBsY-4" value="Formula" style="ellipse;whiteSpace=wrap;html=1;strokeColor=#0000FF;strokeWidth=5;fontSize=20" parent="1" vertex="1">
          <mxGeometry x="720" y="250" width="110" height="41" as="geometry" />
        </mxCell>
        <mxCell id="K9mMDOWby0U6XcUwEBsY-5" value="&lt;u&gt;TradeName&lt;/u&gt;" style="ellipse;whiteSpace=wrap;html=1;strokeColor=#0000FF;strokeWidth=5;fontSize=20" parent="1" vertex="1">
          <mxGeometry x="710" y="390" width="120" height="41" as="geometry" />
        </mxCell>
        <mxCell id="mXORloEy8SjalJCC5QLW-1" value="" style="endArrow=none;html=1;rounded=0;entryX=0;entryY=0.5;entryDx=0;entryDy=0;exitX=1;exitY=0.5;exitDx=0;exitDy=0;" parent="1" source="mXORloEy8SjalJCC5QLW-7" target="mXORloEy8SjalJCC5QLW-4" edge="1">
          <mxGeometry width="50" height="50" relative="1" as="geometry">
            <mxPoint x="84" y="266" as="sourcePoint" />
            <mxPoint x="116" y="242" as="targetPoint" />
          </mxGeometry>
        </mxCell>
        <mxCell id="mXORloEy8SjalJCC5QLW-2" value="" style="endArrow=none;html=1;rounded=0;entryX=0.5;entryY=0;entryDx=0;entryDy=0;exitX=0.5;exitY=1;exitDx=0;exitDy=0;" parent="1" source="mXORloEy8SjalJCC5QLW-5" target="mXORloEy8SjalJCC5QLW-4" edge="1">
          <mxGeometry width="50" height="50" relative="1" as="geometry">
            <mxPoint x="52" y="353" as="sourcePoint" />
            <mxPoint x="90" y="351" as="targetPoint" />
          </mxGeometry>
        </mxCell>
        <mxCell id="mXORloEy8SjalJCC5QLW-3" value="" style="endArrow=none;html=1;rounded=0;entryX=0.5;entryY=1;entryDx=0;entryDy=0;exitX=0.5;exitY=0;exitDx=0;exitDy=0;" parent="1" source="mXORloEy8SjalJCC5QLW-6" target="mXORloEy8SjalJCC5QLW-4" edge="1">
          <mxGeometry width="50" height="50" relative="1" as="geometry">
            <mxPoint x="226" y="295" as="sourcePoint" />
            <mxPoint x="180" y="332" as="targetPoint" />
          </mxGeometry>
        </mxCell>
        <mxCell id="mXORloEy8SjalJCC5QLW-4" value="PHARMACY" style="rounded=0;whiteSpace=wrap;html=1;strokeColor=#FF0000;strokeWidth=5;shadow=0;fontSize=20" parent="1" vertex="1">
          <mxGeometry x="80" y="322" width="120" height="37" as="geometry" />
        </mxCell>
        <mxCell id="mXORloEy8SjalJCC5QLW-5" value="Name" style="ellipse;whiteSpace=wrap;html=1;strokeColor=#0000FF;strokeWidth=5;fontSize=20" parent="1" vertex="1">
          <mxGeometry x="85" y="241" width="110" height="41" as="geometry" />
        </mxCell>
        <mxCell id="mXORloEy8SjalJCC5QLW-6" value="PhoneNum" style="ellipse;whiteSpace=wrap;html=1;strokeColor=#0000FF;strokeWidth=5;fontSize=20" parent="1" vertex="1">
          <mxGeometry x="80" y="401.5" width="120" height="41" as="geometry" />
        </mxCell>
        <mxCell id="mXORloEy8SjalJCC5QLW-7" value="&lt;u&gt;Address&lt;/u&gt;" style="ellipse;whiteSpace=wrap;html=1;strokeColor=#0000FF;strokeWidth=5;fontSize=20" parent="1" vertex="1">
          <mxGeometry x="-60" y="320" width="110" height="41" as="geometry" />
        </mxCell>
      </root>
    </mxGraphModel>
  </diagram>
  <diagram id="zCdYcx9VuEZfkUCN0mO6" name="PRESCRIBES Relationship">
    <mxGraphModel dx="1892" dy="627" grid="1" gridSize="10" guides="1" tooltips="1" connect="1" arrows="1" fold="1" page="1" pageScale="1" pageWidth="850" pageHeight="1100" math="0" shadow="0">
      <root>
        <mxCell id="0" />
        <mxCell id="1" parent="0" />
        <mxCell id="6LlVWpchWfLkabkLFBir-4" value="" style="endArrow=none;html=1;rounded=0;entryX=0.5;entryY=1;entryDx=0;entryDy=0;exitX=0;exitY=0;exitDx=0;exitDy=0;" edge="1" parent="1" source="Pa6IFMAiMi8jfAsSxFGv-20" target="6LlVWpchWfLkabkLFBir-2">
          <mxGeometry width="50" height="50" relative="1" as="geometry">
            <mxPoint x="280" y="430" as="sourcePoint" />
            <mxPoint x="330" y="380" as="targetPoint" />
          </mxGeometry>
        </mxCell>
        <mxCell id="6LlVWpchWfLkabkLFBir-5" value="" style="endArrow=none;html=1;rounded=0;exitX=0.5;exitY=1;exitDx=0;exitDy=0;entryX=1;entryY=0;entryDx=0;entryDy=0;" edge="1" parent="1" source="6LlVWpchWfLkabkLFBir-3" target="Pa6IFMAiMi8jfAsSxFGv-20">
          <mxGeometry width="50" height="50" relative="1" as="geometry">
            <mxPoint x="370" y="305" as="sourcePoint" />
            <mxPoint x="360" y="270" as="targetPoint" />
          </mxGeometry>
        </mxCell>
        <mxCell id="Pa6IFMAiMi8jfAsSxFGv-37" value="" style="endArrow=none;html=1;rounded=0;entryX=1;entryY=0.5;entryDx=0;entryDy=0;exitX=0;exitY=0.5;exitDx=0;exitDy=0;" edge="1" parent="1" source="Pa6IFMAiMi8jfAsSxFGv-20" target="Pa6IFMAiMi8jfAsSxFGv-12">
          <mxGeometry width="50" height="50" relative="1" as="geometry">
            <mxPoint x="400" y="430" as="sourcePoint" />
            <mxPoint x="450" y="380" as="targetPoint" />
          </mxGeometry>
        </mxCell>
        <mxCell id="Pa6IFMAiMi8jfAsSxFGv-40" value="N" style="edgeLabel;html=1;align=center;verticalAlign=middle;resizable=0;points=[];fontSize=20;" vertex="1" connectable="0" parent="Pa6IFMAiMi8jfAsSxFGv-37">
          <mxGeometry x="-0.0097" y="-1" relative="1" as="geometry">
            <mxPoint y="-18" as="offset" />
          </mxGeometry>
        </mxCell>
        <mxCell id="Pa6IFMAiMi8jfAsSxFGv-38" value="" style="endArrow=none;html=1;rounded=0;entryX=1;entryY=0.5;entryDx=0;entryDy=0;exitX=0;exitY=0.5;exitDx=0;exitDy=0;" edge="1" parent="1" source="Pa6IFMAiMi8jfAsSxFGv-28" target="Pa6IFMAiMi8jfAsSxFGv-20">
          <mxGeometry width="50" height="50" relative="1" as="geometry">
            <mxPoint x="550" y="342" as="sourcePoint" />
            <mxPoint x="470" y="341" as="targetPoint" />
          </mxGeometry>
        </mxCell>
        <mxCell id="6LlVWpchWfLkabkLFBir-1" value="M" style="edgeLabel;html=1;align=center;verticalAlign=middle;resizable=0;points=[];fontSize=20;" vertex="1" connectable="0" parent="Pa6IFMAiMi8jfAsSxFGv-38">
          <mxGeometry x="0.1393" y="-2" relative="1" as="geometry">
            <mxPoint x="-4" y="-17" as="offset" />
          </mxGeometry>
        </mxCell>
        <mxCell id="Pa6IFMAiMi8jfAsSxFGv-39" value="" style="endArrow=none;html=1;rounded=0;entryX=0.5;entryY=1;entryDx=0;entryDy=0;exitX=0.5;exitY=0;exitDx=0;exitDy=0;" edge="1" parent="1" source="XPZnTenMqJw9G_r6JnD--3" target="Pa6IFMAiMi8jfAsSxFGv-20">
          <mxGeometry width="50" height="50" relative="1" as="geometry">
            <mxPoint x="260" y="381" as="sourcePoint" />
            <mxPoint x="180" y="380" as="targetPoint" />
          </mxGeometry>
        </mxCell>
        <mxCell id="XPZnTenMqJw9G_r6JnD--1" value="" style="endArrow=none;html=1;rounded=0;entryX=0.25;entryY=1;entryDx=0;entryDy=0;exitX=1;exitY=0;exitDx=0;exitDy=0;" edge="1" parent="1" source="XPZnTenMqJw9G_r6JnD--5" target="XPZnTenMqJw9G_r6JnD--3">
          <mxGeometry width="50" height="50" relative="1" as="geometry">
            <mxPoint x="277" y="511" as="sourcePoint" />
            <mxPoint x="315" y="509" as="targetPoint" />
          </mxGeometry>
        </mxCell>
        <mxCell id="XPZnTenMqJw9G_r6JnD--2" value="" style="endArrow=none;html=1;rounded=0;entryX=0.75;entryY=1;entryDx=0;entryDy=0;exitX=0;exitY=0;exitDx=0;exitDy=0;" edge="1" parent="1" source="XPZnTenMqJw9G_r6JnD--4" target="XPZnTenMqJw9G_r6JnD--3">
          <mxGeometry width="50" height="50" relative="1" as="geometry">
            <mxPoint x="420.6319928392536" y="564.1843610324559" as="sourcePoint" />
            <mxPoint x="345" y="490" as="targetPoint" />
          </mxGeometry>
        </mxCell>
        <mxCell id="XPZnTenMqJw9G_r6JnD--3" value="DRUG" style="rounded=0;whiteSpace=wrap;html=1;strokeColor=#FF0000;strokeWidth=5;shadow=0;fontSize=20" vertex="1" parent="1">
          <mxGeometry x="300" y="480" width="120" height="37" as="geometry" />
        </mxCell>
        <mxCell id="XPZnTenMqJw9G_r6JnD--4" value="Formula" style="ellipse;whiteSpace=wrap;html=1;strokeColor=#0000FF;strokeWidth=5;fontSize=20" vertex="1" parent="1">
          <mxGeometry x="400" y="558" width="110" height="41" as="geometry" />
        </mxCell>
        <mxCell id="XPZnTenMqJw9G_r6JnD--5" value="&lt;u&gt;TradeName&lt;/u&gt;" style="ellipse;whiteSpace=wrap;html=1;strokeColor=#0000FF;strokeWidth=5;fontSize=20" vertex="1" parent="1">
          <mxGeometry x="200" y="558" width="120" height="41" as="geometry" />
        </mxCell>
        <mxCell id="Pa6IFMAiMi8jfAsSxFGv-5" value="" style="endArrow=none;html=1;rounded=0;entryX=0;entryY=0;entryDx=0;entryDy=0;exitX=1;exitY=1;exitDx=0;exitDy=0;" edge="1" parent="1" source="Pa6IFMAiMi8jfAsSxFGv-19" target="Pa6IFMAiMi8jfAsSxFGv-14">
          <mxGeometry width="50" height="50" relative="1" as="geometry">
            <mxPoint x="-101" y="315" as="sourcePoint" />
            <mxPoint x="-51" y="265" as="targetPoint" />
          </mxGeometry>
        </mxCell>
        <mxCell id="Pa6IFMAiMi8jfAsSxFGv-6" value="" style="endArrow=none;html=1;rounded=0;entryX=0.5;entryY=0;entryDx=0;entryDy=0;exitX=0.5;exitY=1;exitDx=0;exitDy=0;" edge="1" parent="1" source="Pa6IFMAiMi8jfAsSxFGv-18" target="Pa6IFMAiMi8jfAsSxFGv-14">
          <mxGeometry width="50" height="50" relative="1" as="geometry">
            <mxPoint x="-46" y="246" as="sourcePoint" />
            <mxPoint x="-14" y="270" as="targetPoint" />
          </mxGeometry>
        </mxCell>
        <mxCell id="Pa6IFMAiMi8jfAsSxFGv-7" value="" style="endArrow=none;html=1;rounded=0;entryX=0;entryY=1;entryDx=0;entryDy=0;exitX=1;exitY=0;exitDx=0;exitDy=0;" edge="1" parent="1" source="Pa6IFMAiMi8jfAsSxFGv-14" target="Pa6IFMAiMi8jfAsSxFGv-17">
          <mxGeometry width="50" height="50" relative="1" as="geometry">
            <mxPoint x="64" y="256" as="sourcePoint" />
            <mxPoint x="96" y="280" as="targetPoint" />
          </mxGeometry>
        </mxCell>
        <mxCell id="Pa6IFMAiMi8jfAsSxFGv-8" value="" style="endArrow=none;html=1;rounded=0;entryX=0;entryY=0.5;entryDx=0;entryDy=0;exitX=1;exitY=0.5;exitDx=0;exitDy=0;" edge="1" parent="1" source="Pa6IFMAiMi8jfAsSxFGv-16" target="Pa6IFMAiMi8jfAsSxFGv-12">
          <mxGeometry width="50" height="50" relative="1" as="geometry">
            <mxPoint x="44" y="285" as="sourcePoint" />
            <mxPoint x="76" y="261" as="targetPoint" />
          </mxGeometry>
        </mxCell>
        <mxCell id="Pa6IFMAiMi8jfAsSxFGv-9" value="" style="endArrow=none;html=1;rounded=0;entryX=0.25;entryY=0;entryDx=0;entryDy=0;exitX=1;exitY=1;exitDx=0;exitDy=0;" edge="1" parent="1" source="Pa6IFMAiMi8jfAsSxFGv-14" target="Pa6IFMAiMi8jfAsSxFGv-12">
          <mxGeometry width="50" height="50" relative="1" as="geometry">
            <mxPoint x="12" y="372" as="sourcePoint" />
            <mxPoint x="50" y="370" as="targetPoint" />
          </mxGeometry>
        </mxCell>
        <mxCell id="Pa6IFMAiMi8jfAsSxFGv-10" value="" style="endArrow=none;html=1;rounded=0;entryX=0.25;entryY=1;entryDx=0;entryDy=0;exitX=1;exitY=0;exitDx=0;exitDy=0;" edge="1" parent="1" source="Pa6IFMAiMi8jfAsSxFGv-13" target="Pa6IFMAiMi8jfAsSxFGv-12">
          <mxGeometry width="50" height="50" relative="1" as="geometry">
            <mxPoint x="44" y="314" as="sourcePoint" />
            <mxPoint x="80" y="351" as="targetPoint" />
          </mxGeometry>
        </mxCell>
        <mxCell id="Pa6IFMAiMi8jfAsSxFGv-11" value="" style="endArrow=none;html=1;rounded=0;exitX=0.5;exitY=0;exitDx=0;exitDy=0;entryX=0.75;entryY=1;entryDx=0;entryDy=0;" edge="1" parent="1" source="Pa6IFMAiMi8jfAsSxFGv-15" target="Pa6IFMAiMi8jfAsSxFGv-12">
          <mxGeometry width="50" height="50" relative="1" as="geometry">
            <mxPoint x="186" y="314" as="sourcePoint" />
            <mxPoint x="130" y="390" as="targetPoint" />
          </mxGeometry>
        </mxCell>
        <mxCell id="Pa6IFMAiMi8jfAsSxFGv-12" value="PATIENT" style="rounded=0;whiteSpace=wrap;html=1;strokeColor=#FF0000;strokeWidth=5;shadow=0;fontSize=20" vertex="1" parent="1">
          <mxGeometry x="40" y="341" width="120" height="37" as="geometry" />
        </mxCell>
        <mxCell id="Pa6IFMAiMi8jfAsSxFGv-13" value="&lt;u&gt;SSN&lt;/u&gt;" style="ellipse;whiteSpace=wrap;html=1;strokeColor=#0000FF;strokeWidth=5;fontSize=20" vertex="1" parent="1">
          <mxGeometry x="-60" y="420" width="110" height="41" as="geometry" />
        </mxCell>
        <mxCell id="Pa6IFMAiMi8jfAsSxFGv-14" value="Name" style="ellipse;whiteSpace=wrap;html=1;strokeColor=#0000FF;strokeWidth=5;fontSize=20" vertex="1" parent="1">
          <mxGeometry x="-40" y="254" width="110" height="41" as="geometry" />
        </mxCell>
        <mxCell id="Pa6IFMAiMi8jfAsSxFGv-15" value="Age" style="ellipse;whiteSpace=wrap;html=1;strokeColor=#0000FF;strokeWidth=5;fontSize=20" vertex="1" parent="1">
          <mxGeometry x="70" y="420" width="110" height="41" as="geometry" />
        </mxCell>
        <mxCell id="Pa6IFMAiMi8jfAsSxFGv-16" value="Address" style="ellipse;whiteSpace=wrap;html=1;strokeColor=#0000FF;strokeWidth=5;fontSize=20" vertex="1" parent="1">
          <mxGeometry x="-108" y="339" width="110" height="41" as="geometry" />
        </mxCell>
        <mxCell id="Pa6IFMAiMi8jfAsSxFGv-17" value="Lname" style="ellipse;whiteSpace=wrap;html=1;strokeColor=#0000FF;strokeWidth=5;fontSize=20" vertex="1" parent="1">
          <mxGeometry x="70" y="201" width="110" height="41" as="geometry" />
        </mxCell>
        <mxCell id="Pa6IFMAiMi8jfAsSxFGv-18" value="Minit" style="ellipse;whiteSpace=wrap;html=1;strokeColor=#0000FF;strokeWidth=5;fontSize=20" vertex="1" parent="1">
          <mxGeometry x="-40" y="160" width="110" height="41" as="geometry" />
        </mxCell>
        <mxCell id="Pa6IFMAiMi8jfAsSxFGv-19" value="Fname" style="ellipse;whiteSpace=wrap;html=1;strokeColor=#0000FF;strokeWidth=5;fontSize=20" vertex="1" parent="1">
          <mxGeometry x="-150" y="201" width="110" height="41" as="geometry" />
        </mxCell>
        <mxCell id="Pa6IFMAiMi8jfAsSxFGv-20" value="PRESCRIBES" style="rhombus;whiteSpace=wrap;html=1;strokeColor=light-dark(#EE12CE,#FFFFFF);strokeWidth=5;fontSize=20" vertex="1" parent="1">
          <mxGeometry x="240" y="295" width="240" height="131.5" as="geometry" />
        </mxCell>
        <mxCell id="Pa6IFMAiMi8jfAsSxFGv-21" value="" style="endArrow=none;html=1;rounded=0;entryX=0;entryY=0;entryDx=0;entryDy=0;exitX=1;exitY=1;exitDx=0;exitDy=0;" edge="1" parent="1" source="Pa6IFMAiMi8jfAsSxFGv-35" target="Pa6IFMAiMi8jfAsSxFGv-30">
          <mxGeometry width="50" height="50" relative="1" as="geometry">
            <mxPoint x="509" y="325" as="sourcePoint" />
            <mxPoint x="559" y="275" as="targetPoint" />
          </mxGeometry>
        </mxCell>
        <mxCell id="Pa6IFMAiMi8jfAsSxFGv-22" value="" style="endArrow=none;html=1;rounded=0;entryX=0.5;entryY=0;entryDx=0;entryDy=0;exitX=0.5;exitY=1;exitDx=0;exitDy=0;" edge="1" parent="1" source="Pa6IFMAiMi8jfAsSxFGv-34" target="Pa6IFMAiMi8jfAsSxFGv-30">
          <mxGeometry width="50" height="50" relative="1" as="geometry">
            <mxPoint x="564" y="256" as="sourcePoint" />
            <mxPoint x="596" y="280" as="targetPoint" />
          </mxGeometry>
        </mxCell>
        <mxCell id="Pa6IFMAiMi8jfAsSxFGv-23" value="" style="endArrow=none;html=1;rounded=0;entryX=0;entryY=1;entryDx=0;entryDy=0;exitX=1;exitY=0;exitDx=0;exitDy=0;" edge="1" parent="1" source="Pa6IFMAiMi8jfAsSxFGv-30">
          <mxGeometry width="50" height="50" relative="1" as="geometry">
            <mxPoint x="674" y="266" as="sourcePoint" />
            <mxPoint x="695.6319928392536" y="245.81563896754415" as="targetPoint" />
          </mxGeometry>
        </mxCell>
        <mxCell id="Pa6IFMAiMi8jfAsSxFGv-24" value="" style="endArrow=none;html=1;rounded=0;entryX=0.25;entryY=1;entryDx=0;entryDy=0;exitX=1;exitY=0;exitDx=0;exitDy=0;" edge="1" parent="1" source="Pa6IFMAiMi8jfAsSxFGv-32" target="Pa6IFMAiMi8jfAsSxFGv-28">
          <mxGeometry width="50" height="50" relative="1" as="geometry">
            <mxPoint x="564" y="281" as="sourcePoint" />
            <mxPoint x="596" y="257" as="targetPoint" />
          </mxGeometry>
        </mxCell>
        <mxCell id="Pa6IFMAiMi8jfAsSxFGv-25" value="" style="endArrow=none;html=1;rounded=0;entryX=0.5;entryY=0;entryDx=0;entryDy=0;exitX=0.5;exitY=1;exitDx=0;exitDy=0;" edge="1" parent="1" source="Pa6IFMAiMi8jfAsSxFGv-30" target="Pa6IFMAiMi8jfAsSxFGv-28">
          <mxGeometry width="50" height="50" relative="1" as="geometry">
            <mxPoint x="532" y="368" as="sourcePoint" />
            <mxPoint x="570" y="366" as="targetPoint" />
          </mxGeometry>
        </mxCell>
        <mxCell id="Pa6IFMAiMi8jfAsSxFGv-26" value="" style="endArrow=none;html=1;rounded=0;entryX=1;entryY=0.5;entryDx=0;entryDy=0;exitX=0;exitY=0.5;exitDx=0;exitDy=0;" edge="1" parent="1" source="Pa6IFMAiMi8jfAsSxFGv-29" target="Pa6IFMAiMi8jfAsSxFGv-28">
          <mxGeometry width="50" height="50" relative="1" as="geometry">
            <mxPoint x="564" y="310" as="sourcePoint" />
            <mxPoint x="600" y="347" as="targetPoint" />
          </mxGeometry>
        </mxCell>
        <mxCell id="Pa6IFMAiMi8jfAsSxFGv-27" value="" style="endArrow=none;html=1;rounded=0;entryX=0.75;entryY=1;entryDx=0;entryDy=0;exitX=0;exitY=0;exitDx=0;exitDy=0;" edge="1" parent="1" source="Pa6IFMAiMi8jfAsSxFGv-31" target="Pa6IFMAiMi8jfAsSxFGv-28">
          <mxGeometry width="50" height="50" relative="1" as="geometry">
            <mxPoint x="706" y="310" as="sourcePoint" />
            <mxPoint x="660" y="347" as="targetPoint" />
          </mxGeometry>
        </mxCell>
        <mxCell id="Pa6IFMAiMi8jfAsSxFGv-28" value="DOCTOR" style="rounded=0;whiteSpace=wrap;html=1;strokeColor=#FF0000;strokeWidth=5;shadow=0;fontSize=20" vertex="1" parent="1">
          <mxGeometry x="560" y="341" width="120" height="37" as="geometry" />
        </mxCell>
        <mxCell id="Pa6IFMAiMi8jfAsSxFGv-29" value="&lt;u&gt;SSN&lt;/u&gt;" style="ellipse;whiteSpace=wrap;html=1;strokeColor=#0000FF;strokeWidth=5;fontSize=20" vertex="1" parent="1">
          <mxGeometry x="710" y="339" width="110" height="41" as="geometry" />
        </mxCell>
        <mxCell id="Pa6IFMAiMi8jfAsSxFGv-30" value="Name" style="ellipse;whiteSpace=wrap;html=1;strokeColor=#0000FF;strokeWidth=5;fontSize=20" vertex="1" parent="1">
          <mxGeometry x="570" y="264" width="110" height="41" as="geometry" />
        </mxCell>
        <mxCell id="Pa6IFMAiMi8jfAsSxFGv-31" value="Specialty" style="ellipse;whiteSpace=wrap;html=1;strokeColor=#0000FF;strokeWidth=5;fontSize=20" vertex="1" parent="1">
          <mxGeometry x="660" y="420" width="110" height="41" as="geometry" />
        </mxCell>
        <mxCell id="Pa6IFMAiMi8jfAsSxFGv-32" value="YrsExperience" style="ellipse;whiteSpace=wrap;html=1;strokeColor=#0000FF;strokeWidth=5;fontSize=20" vertex="1" parent="1">
          <mxGeometry x="470" y="420" width="158" height="41" as="geometry" />
        </mxCell>
        <mxCell id="Pa6IFMAiMi8jfAsSxFGv-33" value="Lname" style="ellipse;whiteSpace=wrap;html=1;strokeColor=#0000FF;strokeWidth=5;fontSize=20" vertex="1" parent="1">
          <mxGeometry x="670" y="213" width="110" height="41" as="geometry" />
        </mxCell>
        <mxCell id="Pa6IFMAiMi8jfAsSxFGv-34" value="Minit" style="ellipse;whiteSpace=wrap;html=1;strokeColor=#0000FF;strokeWidth=5;fontSize=20" vertex="1" parent="1">
          <mxGeometry x="570" y="170" width="110" height="41" as="geometry" />
        </mxCell>
        <mxCell id="Pa6IFMAiMi8jfAsSxFGv-35" value="Fname" style="ellipse;whiteSpace=wrap;html=1;strokeColor=#0000FF;strokeWidth=5;fontSize=20" vertex="1" parent="1">
          <mxGeometry x="470" y="211" width="110" height="41" as="geometry" />
        </mxCell>
        <mxCell id="6LlVWpchWfLkabkLFBir-2" value="Date" style="ellipse;whiteSpace=wrap;html=1;strokeColor=#0000FF;strokeWidth=5;fontSize=20" vertex="1" parent="1">
          <mxGeometry x="240" y="242" width="110" height="41" as="geometry" />
        </mxCell>
        <mxCell id="6LlVWpchWfLkabkLFBir-3" value="Quantity" style="ellipse;whiteSpace=wrap;html=1;strokeColor=#0000FF;strokeWidth=5;fontSize=20" vertex="1" parent="1">
          <mxGeometry x="370" y="242" width="110" height="41" as="geometry" />
        </mxCell>
      </root>
    </mxGraphModel>
  </diagram>
  <diagram id="2jDLoU6hDekZrA0InsC_" name="CONTRACT Relationship">
    <mxGraphModel dx="1892" dy="627" grid="1" gridSize="10" guides="1" tooltips="1" connect="1" arrows="1" fold="1" page="1" pageScale="1" pageWidth="850" pageHeight="1100" math="0" shadow="0">
      <root>
        <mxCell id="0" />
        <mxCell id="1" parent="0" />
        <mxCell id="dnl594Ppr_LSon2iy3lL-1" value="" style="endArrow=none;html=1;rounded=0;exitX=1;exitY=0.5;exitDx=0;exitDy=0;entryX=0;entryY=0.5;entryDx=0;entryDy=0;" edge="1" parent="1" source="dnl594Ppr_LSon2iy3lL-14" target="dnl594Ppr_LSon2iy3lL-5">
          <mxGeometry width="50" height="50" relative="1" as="geometry">
            <mxPoint x="80" y="170" as="sourcePoint" />
            <mxPoint x="160" y="170" as="targetPoint" />
          </mxGeometry>
        </mxCell>
        <mxCell id="dnl594Ppr_LSon2iy3lL-2" value="N" style="edgeLabel;html=1;align=center;verticalAlign=middle;resizable=0;points=[];fontSize=20;" vertex="1" connectable="0" parent="dnl594Ppr_LSon2iy3lL-1">
          <mxGeometry x="-0.2" relative="1" as="geometry">
            <mxPoint x="28" y="-18" as="offset" />
          </mxGeometry>
        </mxCell>
        <mxCell id="dnl594Ppr_LSon2iy3lL-3" value="" style="endArrow=none;html=1;rounded=0;exitX=0;exitY=0.5;exitDx=0;exitDy=0;" edge="1" parent="1" target="dnl594Ppr_LSon2iy3lL-5">
          <mxGeometry width="50" height="50" relative="1" as="geometry">
            <mxPoint x="600" y="340.5" as="sourcePoint" />
            <mxPoint x="170" y="180" as="targetPoint" />
          </mxGeometry>
        </mxCell>
        <mxCell id="dnl594Ppr_LSon2iy3lL-4" value="M" style="edgeLabel;html=1;align=center;verticalAlign=middle;resizable=0;points=[];fontSize=20;" vertex="1" connectable="0" parent="dnl594Ppr_LSon2iy3lL-3">
          <mxGeometry x="-0.2" relative="1" as="geometry">
            <mxPoint x="-28" y="-18" as="offset" />
          </mxGeometry>
        </mxCell>
        <mxCell id="dnl594Ppr_LSon2iy3lL-5" value="CONTRACT" style="rhombus;whiteSpace=wrap;html=1;strokeColor=light-dark(#EE12CE,#FFFFFF);strokeWidth=5;fontSize=20" vertex="1" parent="1">
          <mxGeometry x="280" y="274.75" width="240" height="131.5" as="geometry" />
        </mxCell>
        <mxCell id="dnl594Ppr_LSon2iy3lL-11" value="" style="endArrow=none;html=1;rounded=0;entryX=0;entryY=0.5;entryDx=0;entryDy=0;exitX=1;exitY=0.5;exitDx=0;exitDy=0;" edge="1" parent="1" source="dnl594Ppr_LSon2iy3lL-17" target="dnl594Ppr_LSon2iy3lL-14">
          <mxGeometry width="50" height="50" relative="1" as="geometry">
            <mxPoint x="84" y="266" as="sourcePoint" />
            <mxPoint x="116" y="242" as="targetPoint" />
          </mxGeometry>
        </mxCell>
        <mxCell id="dnl594Ppr_LSon2iy3lL-12" value="" style="endArrow=none;html=1;rounded=0;entryX=0.5;entryY=0;entryDx=0;entryDy=0;exitX=0.5;exitY=1;exitDx=0;exitDy=0;" edge="1" parent="1" source="dnl594Ppr_LSon2iy3lL-15" target="dnl594Ppr_LSon2iy3lL-14">
          <mxGeometry width="50" height="50" relative="1" as="geometry">
            <mxPoint x="52" y="353" as="sourcePoint" />
            <mxPoint x="90" y="351" as="targetPoint" />
          </mxGeometry>
        </mxCell>
        <mxCell id="dnl594Ppr_LSon2iy3lL-13" value="" style="endArrow=none;html=1;rounded=0;entryX=0.5;entryY=1;entryDx=0;entryDy=0;exitX=0.5;exitY=0;exitDx=0;exitDy=0;" edge="1" parent="1" source="dnl594Ppr_LSon2iy3lL-16" target="dnl594Ppr_LSon2iy3lL-14">
          <mxGeometry width="50" height="50" relative="1" as="geometry">
            <mxPoint x="226" y="295" as="sourcePoint" />
            <mxPoint x="180" y="332" as="targetPoint" />
          </mxGeometry>
        </mxCell>
        <mxCell id="dnl594Ppr_LSon2iy3lL-14" value="PHARMACY" style="rounded=0;whiteSpace=wrap;html=1;strokeColor=#FF0000;strokeWidth=5;shadow=0;fontSize=20" vertex="1" parent="1">
          <mxGeometry x="80" y="322" width="120" height="37" as="geometry" />
        </mxCell>
        <mxCell id="dnl594Ppr_LSon2iy3lL-15" value="Name" style="ellipse;whiteSpace=wrap;html=1;strokeColor=#0000FF;strokeWidth=5;fontSize=20" vertex="1" parent="1">
          <mxGeometry x="85" y="241" width="110" height="41" as="geometry" />
        </mxCell>
        <mxCell id="dnl594Ppr_LSon2iy3lL-16" value="PhoneNum" style="ellipse;whiteSpace=wrap;html=1;strokeColor=#0000FF;strokeWidth=5;fontSize=20" vertex="1" parent="1">
          <mxGeometry x="80" y="401.5" width="120" height="41" as="geometry" />
        </mxCell>
        <mxCell id="dnl594Ppr_LSon2iy3lL-17" value="&lt;u&gt;Address&lt;/u&gt;" style="ellipse;whiteSpace=wrap;html=1;strokeColor=#0000FF;strokeWidth=5;fontSize=20" vertex="1" parent="1">
          <mxGeometry x="-60" y="320" width="110" height="41" as="geometry" />
        </mxCell>
        <mxCell id="IlQ_EtUI-HJLVvT_rs9C-1" value="" style="endArrow=none;html=1;rounded=0;entryX=0.75;entryY=1;entryDx=0;entryDy=0;exitX=0;exitY=0;exitDx=0;exitDy=0;" edge="1" parent="1" source="IlQ_EtUI-HJLVvT_rs9C-5" target="IlQ_EtUI-HJLVvT_rs9C-3">
          <mxGeometry width="50" height="50" relative="1" as="geometry">
            <mxPoint x="602" y="353" as="sourcePoint" />
            <mxPoint x="640" y="351" as="targetPoint" />
          </mxGeometry>
        </mxCell>
        <mxCell id="IlQ_EtUI-HJLVvT_rs9C-2" value="" style="endArrow=none;html=1;rounded=0;entryX=0.75;entryY=0;entryDx=0;entryDy=0;exitX=0;exitY=1;exitDx=0;exitDy=0;" edge="1" parent="1" source="IlQ_EtUI-HJLVvT_rs9C-4" target="IlQ_EtUI-HJLVvT_rs9C-3">
          <mxGeometry width="50" height="50" relative="1" as="geometry">
            <mxPoint x="634" y="295" as="sourcePoint" />
            <mxPoint x="670" y="332" as="targetPoint" />
          </mxGeometry>
        </mxCell>
        <mxCell id="IlQ_EtUI-HJLVvT_rs9C-3" value="PHARM_COMPANY" style="rounded=0;whiteSpace=wrap;html=1;strokeColor=#FF0000;strokeWidth=5;shadow=0;fontSize=20" vertex="1" parent="1">
          <mxGeometry x="604" y="322" width="190" height="37" as="geometry" />
        </mxCell>
        <mxCell id="IlQ_EtUI-HJLVvT_rs9C-4" value="&lt;u&gt;Name&lt;/u&gt;" style="ellipse;whiteSpace=wrap;html=1;strokeColor=#0000FF;strokeWidth=5;fontSize=20" vertex="1" parent="1">
          <mxGeometry x="750" y="250" width="110" height="41" as="geometry" />
        </mxCell>
        <mxCell id="IlQ_EtUI-HJLVvT_rs9C-5" value="PhoneNum" style="ellipse;whiteSpace=wrap;html=1;strokeColor=#0000FF;strokeWidth=5;fontSize=20" vertex="1" parent="1">
          <mxGeometry x="750" y="390" width="120" height="41" as="geometry" />
        </mxCell>
        <mxCell id="IlQ_EtUI-HJLVvT_rs9C-6" value="Start" style="ellipse;whiteSpace=wrap;html=1;strokeColor=#0000FF;strokeWidth=5;fontSize=20" vertex="1" parent="1">
          <mxGeometry x="250" y="200" width="110" height="41" as="geometry" />
        </mxCell>
        <mxCell id="IlQ_EtUI-HJLVvT_rs9C-7" value="End" style="ellipse;whiteSpace=wrap;html=1;strokeColor=#0000FF;strokeWidth=5;fontSize=20" vertex="1" parent="1">
          <mxGeometry x="440" y="200" width="110" height="41" as="geometry" />
        </mxCell>
        <mxCell id="IlQ_EtUI-HJLVvT_rs9C-8" value="Supervisor" style="ellipse;whiteSpace=wrap;html=1;strokeColor=#0000FF;strokeWidth=5;fontSize=20" vertex="1" parent="1">
          <mxGeometry x="345" y="150" width="110" height="41" as="geometry" />
        </mxCell>
        <mxCell id="IlQ_EtUI-HJLVvT_rs9C-10" value="" style="endArrow=none;html=1;rounded=0;entryX=0.5;entryY=1;entryDx=0;entryDy=0;exitX=0;exitY=0;exitDx=0;exitDy=0;" edge="1" parent="1" source="dnl594Ppr_LSon2iy3lL-5" target="IlQ_EtUI-HJLVvT_rs9C-6">
          <mxGeometry width="50" height="50" relative="1" as="geometry">
            <mxPoint x="150" y="412" as="sourcePoint" />
            <mxPoint x="150" y="369" as="targetPoint" />
          </mxGeometry>
        </mxCell>
        <mxCell id="IlQ_EtUI-HJLVvT_rs9C-11" value="" style="endArrow=none;html=1;rounded=0;entryX=0.5;entryY=1;entryDx=0;entryDy=0;exitX=1;exitY=0;exitDx=0;exitDy=0;" edge="1" parent="1" source="dnl594Ppr_LSon2iy3lL-5" target="IlQ_EtUI-HJLVvT_rs9C-7">
          <mxGeometry width="50" height="50" relative="1" as="geometry">
            <mxPoint x="460" y="355" as="sourcePoint" />
            <mxPoint x="464" y="282" as="targetPoint" />
          </mxGeometry>
        </mxCell>
        <mxCell id="IlQ_EtUI-HJLVvT_rs9C-12" value="" style="endArrow=none;html=1;rounded=0;entryX=0.5;entryY=1;entryDx=0;entryDy=0;exitX=0.5;exitY=0;exitDx=0;exitDy=0;" edge="1" parent="1" source="dnl594Ppr_LSon2iy3lL-5" target="IlQ_EtUI-HJLVvT_rs9C-8">
          <mxGeometry width="50" height="50" relative="1" as="geometry">
            <mxPoint x="470" y="318" as="sourcePoint" />
            <mxPoint x="505" y="251" as="targetPoint" />
          </mxGeometry>
        </mxCell>
      </root>
    </mxGraphModel>
  </diagram>
</mxfile>
